<svg xmlns="http://www.w3.org/2000/svg" viewBox="0 0 16 16" fill="#000000" id="File-Doc-Light--Streamline-Phosphor" height="16" width="16">
  <desc>
    File Doc Light Streamline Icon: https://streamlinehq.com
  </desc>
  <path d="M1.9567 10.12336875H0.65000625c-0.2706125 0.0000125 -0.49000625 0.21939375 -0.49000625 0.4900125v4.5734125c0 0.270625 0.21938125 0.49000625 0.49000625 0.49000625h1.30669375c2.1375125 0 3.4734625 -2.31393125 2.40470625 -4.165075 -0.4960125 -0.85911875 -1.41268125 -1.38835625 -2.40470625 -1.38835625Zm0 4.5734125H1.14001875v-3.59339375h0.81668125c1.3831 0 2.24753125 1.49725 1.5559875 2.69504375 -0.3209375 0.55588125 -0.91411875 0.898325 -1.5559875 0.89835Zm13.7324875 -0.44590625c0.19519375 0.18723125 0.201775 0.49720625 0.0147 0.69254375 -0.42890625 0.4625625 -1.029525 0.72785625 -1.6603125 0.73338125 -1.3507875 0 -2.45004375 -1.2454375 -2.45004375 -2.7767125s1.09925625 -2.77671875 2.45004375 -2.77671875c0.6310375 0.00595 1.2316875 0.27185625 1.6603125 0.7350125 0.253225 0.27958125 0.10883125 0.72844375 -0.25990625 0.80795 -0.16150625 0.034825 -0.32969375 -0.01409375 -0.4473375 -0.1301 -0.24485 -0.268925 -0.58945 -0.42543125 -0.95306875 -0.43284375 -0.8109625 0 -1.470025 0.8060625 -1.470025 1.7967s0.6590625 1.79669375 1.470025 1.79669375c0.363375 -0.00699375 0.70793125 -0.16288125 0.95306875 -0.43120625 0.18723125 -0.19519375 0.4972 -0.201775 0.69254375 -0.0147Zm-7.5257125 -4.12750625c-1.35079375 0 -2.45004375 1.2454375 -2.45004375 2.77671875s1.09925 2.7767125 2.45004375 2.7767125 2.45004375 -1.2454375 2.45004375 -2.7767125 -1.09925625 -2.77671875 -2.45004375 -2.77671875Zm0 4.5734125c-0.81096875 0 -1.470025 -0.8060625 -1.470025 -1.79669375s0.65905625 -1.7967 1.470025 -1.7967 1.470025 0.8060625 1.470025 1.7967 -0.6590625 1.79669375 -1.470025 1.79669375ZM1.630025 7.8366625c0.27061875 -0.0000125 0.4900125 -0.21939375 0.4900125 -0.49000625V1.46655c0 -0.09020625 0.073125 -0.16333125 0.16333125 -0.16333125H9.6335v4.0834c0 0.270625 0.21938125 0.4900125 0.49000625 0.4900125h4.08340625v1.470025c0.000425 0.37720625 0.40903125 0.6125 0.73549375 0.42353125 0.15116875 -0.08750625 0.244325 -0.2488625 0.244525 -0.42353125V5.38661875c-0.0001125 -0.1299125 -0.05181875 -0.2544625 -0.1437375 -0.34626875L10.46978125 0.4669375c-0.09180625 -0.091925 -0.21635625 -0.143625 -0.346275 -0.1437375H2.28336875c-0.63145625 0 -1.14335 0.51189375 -1.14335 1.14335v5.88010625c0 0.270625 0.21938125 0.49000625 0.49000625 0.49000625Zm8.98349375 -5.8409 2.90085 2.90085h-2.90085Z" stroke-width="0.0625"></path>
</svg>