<svg viewBox="0 0 24 24" xmlns="http://www.w3.org/2000/svg" id="Office-File-Adobe--Streamline-Ultimate" height="24" width="24">
  <desc>
    Office File Adobe Streamline Icon: https://streamlinehq.com
  </desc>
  <path d="M21.207 4.5a1 1 0 0 1 0.293 0.707V22.5a1 1 0 0 1 -1 1h-17a1 1 0 0 1 -1 -1v-21a1 1 0 0 1 1 -1h13.293a1 1 0 0 1 0.707 0.291Z" fill="none" stroke="#000000" stroke-linecap="round" stroke-linejoin="round" stroke-width="1"></path>
  <path d="M6.361 6.889C5.51 5.488 7.546 4.2 8.078 5.637c0.911 2.467 2.376 9.141 -0.929 13.677 -0.922 1.264 -2.911 0.067 -1.841 -1.25A16.174 16.174 0 0 1 17.77 12.35c1.668 0.063 1.582 2.432 0.09 2.25A15.572 15.572 0 0 1 6.361 6.889" fill="none" stroke="#000000" stroke-linecap="round" stroke-linejoin="round" stroke-width="1"></path>
</svg>