<svg xmlns="http://www.w3.org/2000/svg" viewBox="0 0 16 16" fill="#000000" id="Gear-Six--Streamline-Phosphor" height="16" width="16">
  <desc>
    Gear Six Streamline Icon: https://streamlinehq.com
  </desc>
  <path d="M8.0006625 4.64018125c-2.58634375 0 -4.20280625 2.7998 -2.9096375 5.0396375 1.293175 2.23984375 4.5261 2.23984375 5.819275 0 0.29488125 -0.51074375 0.45011875 -1.09011875 0.45011875 -1.679875 -0.001925 -1.85474375 -1.5050125 -3.35783125 -3.35975625 -3.3597625Zm0 5.5996c-1.724225 0 -2.80186875 -1.86653125 -1.93975625 -3.35975625 0.8621125 -1.493225 3.0174 -1.493225 3.8795125 0 0.1965875 0.34049375 0.30008125 0.72674375 0.30008125 1.11991875 0 1.237025 -1.00280625 2.2398375 -2.2398375 2.2398375Zm7.69525 -3.6950375c-0.0315625 -0.15955 -0.1309375 -0.2975 -0.27228125 -0.37796875l-2.08795 -1.18991875 -0.0084 -2.353225c-0.0005125 -0.164025 -0.07291875 -0.319575 -0.1980875 -0.425575 -0.75739375 -0.6406625 -1.62959375 -1.13163125 -2.5702125 -1.44679375 -0.14979375 -0.0507 -0.3140375 -0.0357 -0.45216875 0.0413l-2.10615 1.1773125 -2.10825 -1.1794125c-0.1382125 -0.0774375 -0.3027625 -0.09269375 -0.4528625 -0.042 -0.93993125 0.31746875 -1.81113125 0.81030625 -2.56741875 1.45239375 -0.12498125 0.10584375 -0.19736875 0.26109375 -0.1980875 0.424875l-0.0105 2.355325L0.57559375 6.170975c-0.14134375 0.08046875 -0.24071875 0.21841875 -0.272275 0.37796875 -0.19109375 0.96025 -0.19109375 1.94874375 0 2.90899375 0.03155625 0.15955625 0.13093125 0.29750625 0.272275 0.377975l2.08795 1.1899125 0.0084 2.35323125c0.00051875 0.16401875 0.07291875 0.31956875 0.1980875 0.42556875 0.75739375 0.6406625 1.62959375 1.13163125 2.5702125 1.44679375 0.14979375 0.05070625 0.31404375 0.0357 0.45216875 -0.04129375l2.10825 -1.18011875 2.10825 1.17941875c0.08343125 0.0464875 0.177475 0.0706 0.27298125 0.06999375 0.06115625 -0.00001875 0.12190625 -0.00995 0.1798875 -0.0294 0.93981875 -0.31704375 1.8110125 -0.80940625 2.5674125 -1.45099375 0.1249875 -0.1058375 0.19736875 -0.26109375 0.1980875 -0.42486875l0.0105 -2.35533125 2.08795 -1.1899125c0.14134375 -0.08046875 0.24071875 -0.21841875 0.27228125 -0.377975 0.190025 -0.95948125 0.18930625 -1.9469875 -0.0021 -2.90619375Zm-1.049925 2.443525 -1.99975625 1.13741875c-0.08761875 0.049825 -0.16016875 0.12236875 -0.2099875 0.2099875 -0.04059375 0.06999375 -0.08329375 0.1441875 -0.1266875 0.21418125 -0.05555 0.08826875 -0.08514375 0.1903875 -0.08539375 0.29468125l-0.0105 2.2573375c-0.5375125 0.42210625 -1.13634375 0.75964375 -1.775775 1.000925l-2.01725625 -1.12411875c-0.08374375 -0.0463375 -0.17796875 -0.07043125 -0.27368125 -0.06999375h-0.26808125c-0.10016875 -0.0025 -0.19920625 0.02165625 -0.286975 0.06999375l-2.01865625 1.12691875c-0.64079375 -0.23943125 -1.241275 -0.5753125 -1.780675 -0.996025l-0.00769375 -2.2538375c-0.00035 -0.1045 -0.029925 -0.20681875 -0.08539375 -0.29538125 -0.0434 -0.06999375 -0.08609375 -0.1399875 -0.12599375 -0.21418125 -0.04946875 -0.088975 -0.1220125 -0.1629625 -0.2099875 -0.2141875l-2.00185625 -1.14021875c-0.10359375 -0.65528125 -0.10359375 -1.322775 0 -1.97805625l1.99625625 -1.13951875c0.08761875 -0.04981875 0.16016875 -0.12236875 0.2099875 -0.20998125 0.04059375 -0.07 0.08329375 -0.14419375 0.1266875 -0.2141875 0.05555625 -0.08826875 0.08514375 -0.1903875 0.08539375 -0.29468125l0.0105 -2.2573375c0.5375125 -0.42210625 1.13634375 -0.7596375 1.775775 -1.000925l2.01445625 1.12411875c0.08766875 0.0486 0.18678125 0.07276875 0.28698125 0.06999375h0.25478125c0.10016875 0.00250625 0.19920625 -0.02165 0.286975 -0.06999375l2.01865625 -1.12691875c0.6408 0.2394375 1.241275 0.5753125 1.780675 0.996025l0.0077 2.25384375c0.00034375 0.10449375 0.029925 0.2068125 0.08539375 0.295375 0.04339375 0.06999375 0.08609375 0.13999375 0.1259875 0.2141875 0.04946875 0.08896875 0.1220125 0.1629625 0.2099875 0.21418125l2.00185625 1.14021875c0.104975 0.6557875 0.10615625 1.32400625 0.0035 1.98015625Z" stroke-width="0.0625"></path>
</svg>