<svg xmlns="http://www.w3.org/2000/svg" fill="none" viewBox="0 0 48 48" id="Grid-Outline--Streamline-Ionic-Outline" height="48" width="48">
  <desc>
    Grid Outline Streamline Icon: https://streamlinehq.com
  </desc>
  <path stroke="#000000" stroke-linecap="round" stroke-linejoin="round" d="M18.5402 2.16H4.26c-1.1598 0 -2.1 0.9402 -2.1 2.1v14.2802c0 1.1597 0.9402 2.1 2.1 2.1h14.2802c1.1597 0 2.1 -0.9403 2.1 -2.1V4.2601c0 -1.1599 -0.9403 -2.1001 -2.1 -2.1001Z" stroke-width="3"></path>
  <path stroke="#000000" stroke-linecap="round" stroke-linejoin="round" d="M43.74 2.16H29.4599c-1.1599 0 -2.1 0.9402 -2.1 2.1v14.2802c0 1.1597 0.9401 2.1 2.1 2.1H43.74c1.1599 0 2.1 -0.9403 2.1 -2.1V4.2601c0 -1.1599 -0.9401 -2.1001 -2.1 -2.1001Z" stroke-width="3"></path>
  <path stroke="#000000" stroke-linecap="round" stroke-linejoin="round" d="M18.5402 27.3599H4.26c-1.1598 0 -2.1 0.9402 -2.1 2.1V43.74c0 1.1598 0.9402 2.1 2.1 2.1h14.2802c1.1597 0 2.1 -0.9402 2.1 -2.1V29.4599c0 -1.1598 -0.9403 -2.1 -2.1 -2.1Z" stroke-width="3"></path>
  <path stroke="#000000" stroke-linecap="round" stroke-linejoin="round" d="M43.74 27.3599H29.4599c-1.1599 0 -2.1 0.9402 -2.1 2.1V43.74c0 1.1598 0.9401 2.1 2.1 2.1H43.74c1.1599 0 2.1 -0.9402 2.1 -2.1V29.4599c0 -1.1598 -0.9401 -2.1 -2.1 -2.1Z" stroke-width="3"></path>
</svg>