<svg xmlns="http://www.w3.org/2000/svg" viewBox="0 0 16 16" fill="#000000" id="File-Code-Light--Streamline-Phosphor" height="16" width="16">
  <desc>
    File Code Light Streamline Icon: https://streamlinehq.com
  </desc>
  <path d="M12.0153125 9.51880625c0.179825 0.18005625 0.179825 0.47174375 0 0.6518l-1.84470625 1.84470625c-0.25973125 0.242025 -0.68405625 0.112125 -0.76379375 -0.2338125 -0.0344125 -0.1492875 0.00755625 -0.30590625 0.11199375 -0.4179875l1.5180375 -1.51880625 -1.5180375 -1.51880625c-0.259725 -0.24203125 -0.16005625 -0.67445625 0.1794125 -0.778375 0.16870625 -0.05164375 0.3521 -0.00250625 0.4723875 0.126575Zm-5.53411875 -1.84470625c-0.18005625 -0.179825 -0.47174375 -0.179825 -0.6518 0L3.9846875 9.51880625c-0.179825 0.18005625 -0.179825 0.47174375 0 0.6518l1.84470625 1.84470625c0.24203125 0.259725 0.67445625 0.16005 0.778375 -0.1794125 0.05164375 -0.1687125 0.00250625 -0.3521 -0.126575 -0.4723875l-1.51804375 -1.51880625 1.51804375 -1.51880625c0.17983125 -0.18005625 0.17983125 -0.47174375 0 -0.6518Zm8.129 -2.7486125v9.83843125c0 0.5942875 -0.48179375 1.07605625 -1.076075 1.07608125H2.46588125c-0.59431875 0.000025 -1.076075 -0.48175625 -1.076075 -1.07608125V1.23608125c0 -0.59430625 0.481775 -1.07608125 1.076075 -1.07608125h7.378825c0.1225375 -0.00009375 0.240075 0.04858125 0.32666875 0.13528125l4.3043125 4.3043125c0.08623125 0.08653125 0.13460625 0.2037375 0.13450625 0.32589375Zm-4.3043125 -0.461175h2.7301625l-2.7301625 -2.7301625Zm3.3819625 10.29960625V5.38666875h-3.8431375c-0.2547125 0.0000125 -0.461175 -0.20646875 -0.461175 -0.461175V1.08235625H2.46588125c-0.0849 -0.00000625 -0.153725 0.06881875 -0.153725 0.153725v13.52784375c0 0.0849 0.068825 0.153725 0.153725 0.153725h11.0682375c0.08489375 -0.00000625 0.153725 -0.06883125 0.153725 -0.153725Z" stroke-width="0.0625"></path>
</svg>