<svg viewBox="0 0 24 24" fill="none" xmlns="http://www.w3.org/2000/svg" id="Logout-2--Streamline-Solar-Ar" height="24" width="24">
  <desc>
    Logout 2 Streamline Icon: https://streamlinehq.com
  </desc>
  <path d="M9.00195 7c0.01211 -2.17503 0.10856 -3.35294 0.87694 -4.12132C10.7576 2 12.1718 2 15.0002 2l1 0c2.8284 0 4.2427 0 5.1213 0.87868 0.8787 0.87868 0.8787 2.29289 0.8787 5.12132l0 8c0 2.8284 0 4.2426 -0.8787 5.1213C20.2429 22 18.8286 22 16.0002 22h-1c-2.8284 0 -4.2426 0 -5.12131 -0.8787 -0.76838 -0.7684 -0.86483 -1.9463 -0.87694 -4.1213" stroke="#000000" stroke-linecap="round" stroke-width="1.5"></path>
  <path d="M15 12 2 12m0 0 3.5 -3M2 12l3.5 3" stroke="#000000" stroke-linecap="round" stroke-linejoin="round" stroke-width="1.5"></path>
</svg>