<svg xmlns="http://www.w3.org/2000/svg" viewBox="0 0 16 16" fill="#000000" id="File-Pdf-Light--Streamline-Phosphor" height="16" width="16">
  <desc>
    File Pdf Light Streamline Icon: https://streamlinehq.com
  </desc>
  <path d="M15.50638125 10.6689375c0 0.27636875 -0.22405625 0.5004125 -0.500425 0.500425h-2.1685125v1.6680875h1.50128125c0.385225 0 0.62599375 0.41701875 0.43338125 0.7506375 -0.08939375 0.15483125 -0.2546 0.2502125 -0.43338125 0.2502125h-1.50128125v1.501275c0 0.385225 -0.41701875 0.62599375 -0.7506375 0.43338125 -0.15483125 -0.08939375 -0.2502125 -0.25459375 -0.2502125 -0.43338125V10.6689375c0 -0.276375 0.22405 -0.500425 0.500425 -0.500425h2.6689375c0.27638125 0 0.500425 0.22405 0.500425 0.500425ZM4.49701875 12.33701875c0 1.1976375 -0.970875 2.1685125 -2.16850625 2.1685125H1.49446875v0.83404375c0 0.385225 -0.41701875 0.62599375 -0.7506375 0.43338125 -0.15483125 -0.08939375 -0.2502125 -0.25459375 -0.2502125 -0.43338125V10.6689375c0 -0.27638125 0.22404375 -0.500425 0.500425 -0.500425h1.33446875c1.19759375 0.00005 2.16850625 0.9709125 2.16850625 2.16850625Zm-1.00085 0c0 -0.64485625 -0.5228 -1.167625 -1.16765625 -1.16765625H1.49446875v2.33531875h0.83404375c0.64485625 -0.00003125 1.16765625 -0.5228 1.16765625 -1.16765625Zm7.00595625 0.6672375c0 1.5660875 -1.26965 2.835675 -2.83574375 2.83574375h-1.33446875c-0.27638125 0.0000125 -0.500425 -0.2240375 -0.500425 -0.500425V10.6689375c0 -0.27638125 0.22405 -0.500425 0.500425 -0.500425h1.33446875c1.5661375 0 2.83574375 1.26960625 2.83574375 2.83574375Zm-1.00085 0c0 -1.01335 -0.8215375 -1.83485 -1.83489375 -1.83489375h-0.83404375v3.6697875h0.83404375c1.01335625 -0.00004375 1.83489375 -0.82154375 1.83489375 -1.83489375ZM0.49361875 7.33276875V1.3276625c0 -0.64488125 0.522775 -1.1676625 1.16765625 -1.1676625h8.0068125c0.1329625 -0.00010625 0.2605 0.0527125 0.3544625 0.14679375l4.67064375 4.6706375c0.09356875 0.09389375 0.1460625 0.221075 0.14595625 0.35363125v2.00170625c0 0.385225 -0.417025 0.62599375 -0.7506375 0.43338125 -0.15483125 -0.08939375 -0.2502125 -0.2546 -0.2502125 -0.43338125V5.8314875h-4.1702125c-0.27638125 0 -0.500425 -0.22404375 -0.500425 -0.500425V1.16085H1.661275c-0.092125 0 -0.16680625 0.07468125 -0.16680625 0.1668125v6.00510625c0 0.385225 -0.417025 0.62599375 -0.7506375 0.43338125 -0.15483125 -0.08939375 -0.2502125 -0.2546 -0.2502125 -0.43338125Zm9.67489375 -2.50213125h2.96251875l-2.96251875 -2.96251875Z" stroke-width="0.0625"></path>
</svg>